<svg width="43" height="43" viewBox="0 0 43 43" fill="none" xmlns="http://www.w3.org/2000/svg">
<g clip-path="url(#clip0_7_13)">
<path d="M43 0H0V43H43V0Z" fill="white"/>
<path d="M31.4353 14.8814C31.3094 14.959 28.5416 16.5705 28.573 19.9229C28.6078 23.9328 32.0882 25.2681 32.1282 25.2833C32.097 25.3787 31.5718 27.1852 30.2936 29.0507C29.189 30.667 28.0448 32.274 26.2388 32.3076C24.4645 32.3401 23.8927 31.2548 21.8657 31.2548C19.8376 31.2548 19.2028 32.274 17.5249 32.3401C15.7818 32.406 14.4546 30.5948 13.3419 28.9874C11.0671 25.698 9.3279 19.6913 11.6633 15.6377C12.8227 13.6245 14.895 12.3491 17.1435 12.3161C18.856 12.2837 20.4709 13.4673 21.5183 13.4673C22.5508 13.4673 24.4013 12.0876 26.5825 12.249C27.4373 12.3123 29.8641 12.5675 31.4353 14.8814ZM25.2366 10.0775C26.163 8.95793 26.7862 7.39873 26.6146 5.8479C25.2813 5.90077 23.6688 6.73601 22.7125 7.85487C21.8561 8.84601 21.104 10.4334 21.3082 11.9526C22.7943 12.0674 24.311 11.1978 25.2366 10.0775Z" fill="#1D1D1F"/>
</g>
<defs>
<clipPath id="clip0_7_13">
<rect width="43" height="43" fill="white"/>
</clipPath>
</defs>
</svg>
