<svg width="40" height="40" viewBox="0 0 40 40" fill="none" xmlns="http://www.w3.org/2000/svg">
<g clip-path="url(#clip0_7_7)">
<path d="M0 0H40V40H0" fill="white"/>
<path d="M11.9531 22.8125C14.2969 29.2188 21.1719 30.2344 25.3125 27.5H30.1562V31.25C28.4308 32.7257 26.3929 33.7906 24.1961 34.3642C21.9993 34.9378 19.701 35.0052 17.4743 34.5614C15.2477 34.1176 13.1508 33.1741 11.3419 31.802C9.53289 30.4299 8.05898 28.6651 7.03125 26.6406" fill="#34A853"/>
<path d="M30.1562 31.25C31.8553 29.6702 33.151 27.5079 33.886 25.0255C34.621 22.5432 34.7638 19.8474 34.2969 17.2656H20.3125V23.0469H28.2812C27.9167 24.974 26.9271 26.4583 25.3125 27.5" fill="#4285F4"/>
<path d="M7.03125 26.6406C6.0042 24.5523 5.4715 22.271 5.4715 19.9609C5.4715 17.6509 6.0042 15.3696 7.03125 13.2812L11.9531 17.1094C11.3281 19.0365 11.3281 20.9375 11.9531 22.8125" fill="#FBBC02"/>
<path d="M11.9531 17.1094C13.6719 11.7187 21.0156 8.59373 25.9375 13.2031L30.2344 8.98436C24.1406 3.12498 12.2656 3.35936 7.03125 13.2812" fill="#EA4335"/>
</g>
<defs>
<clipPath id="clip0_7_7">
<rect width="40" height="40" fill="white"/>
</clipPath>
</defs>
</svg>
