<svg width="32" height="32" viewBox="0 0 32 32" fill="none" xmlns="http://www.w3.org/2000/svg">
<path d="M6.33333 19H25.3333V15.8333H6.33333V19ZM6.33333 14.25H25.3333V11.0833H6.33333V14.25ZM6.33333 9.5H25.3333V6.33333H6.33333V9.5ZM31.6667 31.6667L25.3333 25.3333H3.16667C2.29583 25.3333 1.55035 25.0233 0.930208 24.4031C0.310069 23.783 0 23.0375 0 22.1667V3.16667C0 2.29583 0.310069 1.55035 0.930208 0.930208C1.55035 0.310069 2.29583 0 3.16667 0H28.5C29.3708 0 30.1163 0.310069 30.7365 0.930208C31.3566 1.55035 31.6667 2.29583 31.6667 3.16667V31.6667ZM3.16667 22.1667H26.6792L28.5 23.9479V3.16667H3.16667V22.1667Z" fill="#00C8B3"/>
</svg>
